<?xml version="1.0" encoding="UTF-8"?>
<svg id="Layer_2" data-name="Layer 2" xmlns="http://www.w3.org/2000/svg" viewBox="0 0 179.49 231.5">
  <defs>
    <style>
      .cls-1 {
        fill: #004b87;
      }
    </style>
  </defs>
  <g id="Layer_1-2" data-name="Layer 1">
    <path class="cls-1" d="M100.53,48.35c0-5.86-4.9-10.61-10.95-10.61s-10.91,4.75-10.91,10.61,4.88,10.61,10.91,10.61c6.06,0,10.95-4.75,10.95-10.61ZM0,0v179.49h56.47l33.28,52,33.28-52h56.46V0H0ZM142.85,131.72l-10.8-10.48c-7.49,6.16-14.21,21.86-43.41,22.6-23.19,0-32.86-14.27-41.4-21.16l-9.86,9.56-5.63-35.99,37.09,5.46-10.22,9.92s8.77,14.58,23.9,15.59l-.03-59.26c-8.17-2.84-14.07-10.37-14.07-19.29,0-11.36,9.48-20.57,21.19-20.57s21.21,9.21,21.21,20.57c0,9.07-6.07,16.67-14.46,19.4.06,11.57.24,59.37-.01,59.37,12.55-.35,24.28-17.31,24.28-17.31l-9.57-9.28,37.15-5.46-5.35,36.32Z"/>
  </g>
</svg>