<?xml version="1.0" encoding="UTF-8"?>
<svg id="Layer_2" data-name="Layer 2" xmlns="http://www.w3.org/2000/svg" viewBox="0 0 303.34 262.7">
  <defs>
    <style>
      .cls-1 {
        fill: #fff;
      }

      .cls-2 {
        fill: #c8314a;
      }
    </style>
  </defs>
  <g id="Layer_1-2" data-name="Layer 1">
    <g>
      <polygon class="cls-2" points="227.5 0 75.83 0 0 131.35 75.83 262.7 227.5 262.7 303.34 131.35 227.5 0"/>
      <g>
        <circle class="cls-1" cx="151.42" cy="69.35" r="27"/>
        <circle class="cls-1" cx="203.42" cy="96.35" r="18"/>
        <circle class="cls-1" cx="99.42" cy="96.35" r="18"/>
        <circle class="cls-1" cx="63.42" cy="113.35" r="12"/>
        <circle class="cls-1" cx="240.42" cy="113.35" r="12"/>
        <path class="cls-1" d="M151.21,103.35h.43c23.61,0,42.79,19.17,42.79,42.79v74.21h-86v-74.21c0-23.61,19.17-42.79,42.79-42.79Z"/>
        <path class="cls-1" d="M107.69,123.52l-8.56-1c-15.7-.17-28.21,12.17-28.21,27.38v54.45h32.44c-1.19-35.3-2.73-71.74,4.33-80.83Z"/>
        <path class="cls-1" d="M67.92,133.54l-5.88-.69c-10.77-.12-19.36,8.41-19.36,18.92v37.62h22.26c-.82-24.39-1.87-49.58,2.97-55.86Z"/>
        <path class="cls-1" d="M235.42,133.49l5.88-.69c10.77-.12,19.36,8.41,19.36,18.92v37.62h-22.26c.82-24.39,1.87-49.58-2.97-55.86Z"/>
        <path class="cls-1" d="M195.65,123.52l8.56-1c15.7-.17,28.21,12.17,28.21,27.38v54.45h-32.44c1.19-35.3,2.73-71.74-4.33-80.83Z"/>
      </g>
    </g>
  </g>
</svg>